<svg width="362" height="387" viewBox="0 0 362 387" fill="none" xmlns="http://www.w3.org/2000/svg">
<g clip-path="url(#clip0)">
<path d="M68.021 61.6193L73.8809 59.358L75.4202 62.7075L76.1315 70.7125L74.8204 71.6627L68.021 61.6193Z" fill="black"/>
<path d="M96.4926 77.3851L89.7993 81.2549L96.8323 91.6274L98.4725 90.4331L99.4916 82.1998L96.4926 77.3851Z" fill="black"/>
<g opacity="0.05">
<path opacity="0.05" d="M110.532 29.0632C109.184 31.1016 107.926 33.3099 107.538 34.8599L108.6 34.1274C108.467 32.9755 109.343 31.0645 110.532 29.0632Z" fill="black"/>
<path opacity="0.05" d="M116.567 56.8047L117.305 41.2883C100.85 51.7299 76.7737 61.2584 76.7737 61.2584L75.6113 63.1004C75.6113 63.1004 99.7145 53.5719 116.143 43.1303L115.453 57.7442L116.567 56.8047Z" fill="black"/>
</g>
<g opacity="0.5">
<path opacity="0.5" d="M73.4934 72.4165L74.8416 71.4345L74.1145 63.1906L72.5274 59.7455L66.4923 62.0759L73.4934 72.4165Z" fill="url(#paint0_linear)"/>
<path opacity="0.5" d="M165.384 0.99797C161.716 -0.764403 158.972 0.0637 157.051 1.5288C155.335 2.82062 153.996 4.54684 153.171 6.52927L152.64 7.93598L150.156 9.74082L149.349 8.01561C149.349 8.01561 140.554 -7.61217 114.609 22.9055L114.492 22.81C114.492 22.81 112.284 25.5119 110.272 28.543L109.985 28.9783L109.858 29.1747L109.677 29.456L109.545 29.6684L109.343 30.0028L109.168 30.2894L108.982 30.6026L108.849 30.8309L108.711 31.0698L108.579 31.3087L108.441 31.5635L108.239 31.9457L108.128 32.158L108.006 32.4075L107.915 32.5986L107.798 32.8481L107.724 33.0126C107.66 33.1613 107.6 33.3064 107.544 33.4479L107.48 33.6125L107.395 33.846L107.342 34.0053C107.303 34.1256 107.268 34.2442 107.236 34.361C107.236 34.4247 107.199 34.4831 107.188 34.5414C107.084 34.9142 107.045 35.302 107.071 35.688L72.5274 59.7296L74.3002 63.5834C74.3002 63.5834 99.1254 53.7736 116.047 43.0136L115.336 58.0627L115.293 58.9917C115.293 58.9917 99.8366 71.7901 95.8132 78.3088L88.9129 82.2954L96.1582 92.9758L97.8461 91.7495L98.9077 83.2562L127.268 60.5842C127.268 60.5842 132.645 50.7585 132.74 42.5358L133.903 47.0214C133.903 47.0214 136.376 53.97 138.123 54.246C139.869 54.5221 139.874 48.8581 138.653 47.1753C137.433 45.4926 138.006 34.2495 138.006 34.2495L138.324 31.9616L142.762 28.7341L142.926 28.5802L143.16 29.9922L144.052 30.0718V30.1355L144.094 30.5443L144.667 41.2618L147.81 53.3861C147.81 53.3861 150.283 60.3347 152.029 60.6108C153.776 60.8868 153.781 55.2228 152.56 53.54C151.339 51.8573 151.918 40.6195 151.918 40.6195L153.213 31.2609V31.0804L153.24 30.8734L155.793 31.0963C155.793 31.0963 158.447 21.9713 154.004 17.9953L153.197 16.2701L154.853 15.0704L155.188 14.8315C156.591 16.2046 158.476 16.9735 160.44 16.9735C162.403 16.9735 164.288 16.2046 165.692 14.8315C166.934 14.947 168.176 14.6157 169.195 13.8973L169.837 13.4354C170.528 12.9967 171.152 12.4603 171.69 11.8429C172.141 11.0042 171.064 3.72115 165.384 0.99797Z" fill="url(#paint1_linear)"/>
</g>
<path d="M114.651 23.5001C114.651 23.5001 107.098 32.7366 107.453 35.9747L73.8862 59.358L75.606 63.1004C75.606 63.1004 99.7092 53.5719 116.137 43.1304L115.405 58.6679C115.405 58.6679 100.399 71.0735 96.4979 77.4064L99.4969 82.2211L127.034 60.2073C127.034 60.2073 135.203 45.2802 131.281 37.1372L114.651 23.5001Z" fill="#535461"/>
<path d="M356.581 249.769C332.403 346.742 234.185 405.765 137.199 381.58C40.2128 357.395 -18.7688 259.164 5.42469 162.181C29.6182 65.1972 127.809 6.1683 224.764 30.3478C321.718 54.5274 380.758 152.769 356.581 249.769Z" fill="#F7931A"/>
<path d="M260.81 180.176C264.414 156.087 246.075 143.14 221 134.524L229.137 101.894L209.275 96.9411L201.351 128.685C196.128 127.385 190.767 126.158 185.427 124.937L193.389 92.9545L173.569 88.0125L165.427 120.632C161.106 119.65 156.86 118.673 152.746 117.649V117.548L125.373 110.69L120.065 131.923C120.065 131.923 134.8 135.299 134.492 135.512C142.534 137.518 143.988 142.842 143.749 147.063L134.481 184.221C135.184 184.397 135.873 184.618 136.546 184.885C135.883 184.72 135.177 184.54 134.423 184.354L121.435 236.429C120.453 238.87 117.958 242.539 112.331 241.148C112.528 241.434 97.8939 237.543 97.8939 237.543L88.1115 260.306L113.929 266.755C118.738 267.96 123.452 269.224 128.091 270.407L119.874 303.383L139.715 308.336L147.857 275.684C153.277 277.154 158.537 278.513 163.686 279.793L155.575 312.296L175.437 317.248L183.654 284.321C217.524 290.728 242.991 288.143 253.718 257.508C262.354 232.84 253.289 218.614 235.47 209.335C248.411 206.346 258.204 197.81 260.81 180.176ZM215.432 243.813C209.297 268.48 167.767 255.146 154.306 251.775L165.214 208.05C178.675 211.437 221.871 218.088 215.432 243.813ZM221.574 179.815C215.974 202.253 181.409 190.851 170.198 188.059L180.087 148.379C191.303 151.198 227.407 156.416 221.574 179.815Z" fill="white"/>
<path d="M143.043 25.0714L143.914 41.4211L146.96 53.1897C146.96 53.1897 149.36 59.9366 151.058 60.202C152.757 60.4674 152.762 54.968 151.589 53.333C150.416 51.698 150.978 40.7894 150.978 40.7894L152.868 26.908L143.043 25.0714Z" fill="#FDA57D"/>
<path d="M142.029 27.8104L142.47 30.4646L154.752 31.5263C154.752 31.5263 157.321 22.6667 153.011 18.7863L142.029 27.8104Z" fill="#F55F44"/>
<path d="M153.011 18.8234L148.473 9.13566C148.473 9.13566 139.901 -6.094 114.582 23.7814L131.281 37.116L142.088 29.2596L153.011 18.8234Z" fill="#F55F44"/>
<path d="M156.588 5.48978L160.626 11.0462L151.812 17.4535C151.197 17.9004 150.429 18.0848 149.678 17.966C148.928 17.8472 148.255 17.435 147.808 16.82L147.143 15.9054C146.696 15.2904 146.512 14.5231 146.631 13.7722C146.749 13.0213 147.162 12.3483 147.777 11.9013L156.591 5.49407L156.588 5.48978Z" fill="#FDA57D"/>
<path opacity="0.05" d="M151.902 8.89681C151.556 10.1426 151.554 11.4585 151.894 12.7058C152.234 13.9531 152.904 15.0855 153.834 15.9835L158.001 12.9524L153.961 7.39455L151.902 8.89681Z" fill="black"/>
<path d="M163.529 16.4212C166.784 14.0546 167.51 9.50236 165.148 6.25339C162.787 3.00442 158.234 2.28907 154.978 4.65562C151.722 7.02218 150.997 11.5745 153.358 14.8234C155.719 18.0724 160.273 18.7877 163.529 16.4212Z" fill="#FDA57D"/>
<path opacity="0.05" d="M155.883 6.24792L151.674 9.06135L152.205 7.69179C152.205 7.69179 155.665 -1.3324 163.733 2.55862C169.248 5.21279 170.294 12.2729 169.875 13.0798C169.252 13.7569 168.537 14.3431 167.751 14.8209C166.716 15.5547 165.443 15.8735 164.184 15.7143C162.925 15.555 161.772 14.9294 160.952 13.961C159.54 12.2782 157.077 8.79593 157.528 6.79999C157.114 6.0462 156.573 5.73832 155.878 6.26915L155.883 6.24792Z" fill="black"/>
<path d="M156.212 6.00906L152.003 8.82249L152.534 7.45293C152.534 7.45293 155.994 -1.57126 164.062 2.31976C169.577 4.97393 170.623 12.034 170.204 12.8409C169.581 13.5181 168.866 14.1042 168.08 14.582C167.045 15.3158 165.772 15.6346 164.513 15.4754C163.255 15.3162 162.101 14.6905 161.281 13.7221C159.869 12.0393 157.406 8.55707 157.857 6.56113C157.443 5.80734 156.902 5.49946 156.207 6.03029L156.212 6.00906Z" fill="#5A2F32"/>
<path d="M157.634 6.4767C158.358 5.94914 158.732 5.22886 158.469 4.86791C158.206 4.50695 157.406 4.64202 156.682 5.16958C155.958 5.69714 155.584 6.41744 155.846 6.77839C156.109 7.13935 156.91 7.00427 157.634 6.4767Z" fill="#FDA57D"/>
<path opacity="0.05" d="M140.676 29.042L142.603 27.3911L142.624 29.9975L142.204 28.9942L140.676 29.042Z" fill="black"/>
<path opacity="0.05" d="M143.319 30.6133L143.362 31.0167L152.22 31.7068L152.274 31.3299L143.319 30.6133Z" fill="black"/>
<path d="M129.55 18.8977L130.421 35.2475L133.468 46.9895C133.468 46.9895 135.867 53.7364 137.565 54.0019C139.264 54.2673 139.269 48.7678 138.096 47.1329C136.923 45.4979 137.475 34.6158 137.475 34.6158L139.397 20.7344L129.55 18.8977Z" fill="#FDA57D"/>
<path d="M201.818 143.734H200.894V144.658H201.818V143.734Z" fill="#CCCCCC"/>
<path d="M200.294 145.125H202.577C202.741 145.125 202.903 145.157 203.054 145.22C203.205 145.283 203.343 145.375 203.459 145.49C203.575 145.606 203.666 145.744 203.729 145.895C203.792 146.046 203.824 146.209 203.824 146.372V154.064H199.047V146.372C199.047 146.209 199.079 146.046 199.142 145.895C199.205 145.744 199.296 145.606 199.412 145.49C199.528 145.375 199.666 145.283 199.817 145.22C199.968 145.157 200.13 145.125 200.294 145.125Z" fill="#535461"/>
<path d="M202.747 144.509H199.97V145.125H202.747V144.509Z" fill="#F7931A"/>
<path d="M203.824 148.666H199.047V150.513H203.824V148.666Z" fill="#F7931A"/>
<path d="M201.823 143.888V144.35C201.653 144.35 201.515 144.244 201.515 144.116C201.515 143.989 201.653 143.888 201.823 143.888Z" fill="#E6E6E6"/>
<path opacity="0.05" d="M130.527 10.9458C130.527 10.9458 128.499 16.4187 129.359 18.2873L130.527 10.9458Z" fill="black"/>
<path opacity="0.05" d="M129.593 18.6164L129.587 19.6303L139.317 21.2652L139.434 20.4531L129.593 18.6164Z" fill="black"/>
<path d="M131.79 10.277L129.55 18.8977L139.391 20.7344L141.992 9.85229L131.79 10.277Z" fill="#F55F44"/>
<g opacity="0.5">
<path opacity="0.5" d="M131.456 40.1364L133.393 47.4726C133.393 47.4726 135.893 54.3734 137.64 54.6335C139.386 54.8937 139.412 49.288 138.17 47.6212C137.518 46.7453 137.38 43.2524 137.39 40.1364H131.456Z" fill="url(#paint2_linear)"/>
</g>
<path d="M131.61 40.1364L133.473 47.3186C133.473 47.3186 135.872 54.0656 137.571 54.331C139.269 54.5964 139.274 49.0969 138.101 47.462C137.475 46.602 137.342 43.1834 137.353 40.1364H131.61Z" fill="#FDA57D"/>
<g opacity="0.5">
<path opacity="0.5" d="M151.313 39.8339H143.563L143.669 41.7767L146.897 53.8904C146.897 53.8904 149.439 60.8337 151.233 61.1097C153.027 61.3858 153.033 55.7217 151.764 54.0443C150.495 52.3669 151.132 41.1503 151.132 41.1503L151.313 39.8339Z" fill="url(#paint3_linear)"/>
</g>
<path d="M151.138 39.8339H143.813L143.914 41.7236L146.96 53.4922C146.96 53.4922 149.36 60.2392 151.058 60.5046C152.757 60.77 152.762 55.2705 151.589 53.6356C150.416 52.0006 150.978 41.0919 150.978 41.0919L151.138 39.8339Z" fill="#FDA57D"/>
<path opacity="0.2" d="M201.701 143.856L214.971 141.202L215.501 147.572L201.701 144.387V143.856Z" fill="#535461"/>
<g opacity="0.5">
<path opacity="0.5" d="M181.679 145.82L182.046 145.98L193.723 151.007L208.601 133.356C208.601 133.356 210.857 130.835 208.171 129.11C205.485 127.385 203.798 131.849 203.798 131.849L192.364 144.132L182.651 139.275L182.805 138.256L173.951 133.139C173.779 132.816 173.592 132.503 173.388 132.199L173.309 131.913L172.868 131.525C172.783 131.435 172.698 131.35 172.613 131.276L174.078 129.683C175.169 130.065 176.329 130.203 177.478 130.087C178.628 129.97 179.737 129.603 180.729 129.011C181.72 128.418 182.569 127.615 183.216 126.658C183.863 125.701 184.291 124.613 184.471 123.472C185.157 123.603 185.861 123.603 186.547 123.472C187.448 123.283 188.29 122.878 189.002 122.293C189.714 121.708 190.273 120.96 190.634 120.112C190.604 120.169 190.561 120.219 190.508 120.256C190.456 120.294 190.395 120.319 190.331 120.33C190.445 120.131 190.546 119.925 190.634 119.714C190.331 120.446 187.502 119.438 187.078 119.183C185.782 118.493 185.114 117.474 184.424 116.221C183.102 113.747 180.66 112.834 177.911 112.617C175.81 112.389 173.685 112.656 171.706 113.397C170.72 113.774 169.823 114.351 169.071 115.092C168.319 115.833 167.729 116.722 167.337 117.702C167.101 118.375 166.993 119.086 167.019 119.799C166.974 120.562 167.1 121.326 167.389 122.034C167.677 122.742 168.12 123.377 168.686 123.892C168.782 123.975 168.883 124.053 168.988 124.125C169.047 124.353 169.11 124.576 169.19 124.799L168.802 125.219L166.286 127.947L166.159 127.91L139.657 131.875V131.928C138.776 131.345 134.784 129.317 124.821 132.072C121.058 133.133 114.789 133.001 108.059 132.38C103.356 126.53 100.32 108.312 100.32 108.312L99.1307 103.157L83.7006 106.724C83.7006 106.724 90.8185 108.317 92.0074 110.292C93.8174 110.897 94.9374 124.417 95.3674 130.798C86.1263 129.37 78.5572 127.735 78.5572 127.735L73.021 125.755L69.0666 139.631C69.0666 139.631 73.4191 134.853 77.3735 134.476C77.3735 134.476 97.1508 143.989 111.79 142.009C117.491 141.239 123 143.649 127.613 144.387C131.651 145.06 135.729 145.458 139.821 145.576L139.869 149.934C139.869 149.934 156.159 149.234 166.86 145.836C167.672 148.034 168.325 149.621 168.553 149.738L170.496 148.788L181.409 162.223L202.762 153.496C202.762 153.496 205.947 152.307 204.355 149.531C202.762 146.755 199.211 149.929 199.211 149.929L183.389 155.476L176.711 146.219L176.451 145.858L177.852 145.173C177.852 145.173 177.81 144.966 177.725 144.61L181.409 147.551L181.679 145.82Z" fill="url(#paint4_linear)"/>
</g>
<path d="M168.771 134.476L163.882 129.943L171.977 121.168L176.865 125.696L168.771 134.476Z" fill="#FDA57D"/>
<path opacity="0.05" d="M171.589 121.551L168.017 125.426C168.402 126.515 169.027 127.503 169.846 128.318C170.665 129.133 171.656 129.754 172.746 130.134L176.462 126.084L171.589 121.551Z" fill="black"/>
<path d="M172.64 142.067L192.242 150.502L206.727 133.335C206.727 133.335 208.92 130.883 206.308 129.205C203.697 127.528 202.062 131.859 202.062 131.859L190.915 143.793L176.61 136.648L172.64 142.067Z" fill="#FDA57D"/>
<path d="M171.61 132.305L181.616 138.086L180.268 147.147L170.841 139.631L171.61 132.305Z" fill="#6C63FF"/>
<path d="M175.65 130.187C179.9 130.187 183.346 126.734 183.346 122.474C183.346 118.214 179.9 114.761 175.65 114.761C171.399 114.761 167.953 118.214 167.953 122.474C167.953 126.734 171.399 130.187 175.65 130.187Z" fill="#FDA57D"/>
<path d="M169.323 129.221L165.474 128.064L139.678 131.923L139.869 149.441C139.869 149.441 171.228 148.092 174.689 139.997L172.38 131.923L169.323 129.221Z" fill="#6C63FF"/>
<path opacity="0.05" d="M171.143 139.864L180.268 147.147L180.655 144.063L171.61 135.389L171.143 139.864Z" fill="black"/>
<path d="M139.869 132.109C139.869 132.109 136.408 129.025 125.251 132.109C114.094 135.193 80.2345 127.862 80.2345 127.862L79.088 134.423C79.088 134.423 98.3239 143.676 112.56 141.749C118.101 141 123.462 143.341 127.953 144.063C131.894 144.715 135.876 145.092 139.869 145.194V132.109Z" fill="#4D8AF0"/>
<path d="M80.2345 127.868L74.8417 125.941L70.9934 139.434C70.9934 139.434 75.2397 134.806 79.0721 134.423L80.2345 127.868Z" fill="#535461"/>
<path d="M93.3132 110.907L101.381 108.98C101.381 108.98 105.229 132.114 110.999 134.041H96.7793C96.7793 134.041 95.6221 111.677 93.3132 110.907Z" fill="#4D8AF0"/>
<path d="M101.381 108.98L100.229 103.969L85.2239 107.441C85.2239 107.441 92.1242 108.986 93.3026 110.913L101.381 108.98Z" fill="#535461"/>
<path opacity="0.05" d="M176.876 113.556C174.832 113.335 172.766 113.595 170.841 114.315C169.882 114.682 169.01 115.244 168.279 115.965C167.548 116.686 166.974 117.55 166.594 118.504C165.904 120.436 166.35 122.809 167.911 124.136C168.281 124.485 168.757 124.702 169.264 124.752C170.082 124.783 170.766 124.184 171.387 123.663C172.566 122.69 173.865 121.871 175.252 121.227C176.43 120.696 177.868 120.271 178.967 120.945C179.464 121.315 179.915 121.742 180.31 122.219C180.946 122.852 181.728 123.318 182.587 123.576C183.445 123.834 184.354 123.877 185.234 123.701C186.113 123.525 186.935 123.134 187.628 122.565C188.321 121.996 188.863 121.264 189.206 120.436C188.909 121.152 186.159 120.165 185.745 119.948C184.482 119.279 183.834 118.286 183.187 117.07C181.924 114.655 179.546 113.769 176.876 113.556Z" fill="black"/>
<path d="M176.876 113.174C174.832 112.953 172.766 113.213 170.841 113.933C169.882 114.3 169.01 114.862 168.279 115.583C167.548 116.303 166.974 117.168 166.594 118.121C165.904 120.054 166.35 122.426 167.911 123.754C168.281 124.103 168.757 124.32 169.264 124.369C170.082 124.401 170.766 123.801 171.387 123.281C172.566 122.308 173.865 121.489 175.252 120.845C176.43 120.314 177.868 119.889 178.967 120.563C179.464 120.932 179.915 121.36 180.31 121.837C180.946 122.469 181.728 122.935 182.587 123.194C183.445 123.452 184.354 123.495 185.234 123.319C186.113 123.142 186.935 122.752 187.628 122.183C188.321 121.613 188.863 120.882 189.206 120.054C188.909 120.77 186.159 119.783 185.745 119.565C184.482 118.896 183.834 117.904 183.187 116.688C181.924 114.273 179.546 113.381 176.876 113.174Z" fill="black"/>
<path d="M173.712 121.836C173.86 121.215 173.727 120.651 173.416 120.577C173.106 120.503 172.734 120.947 172.586 121.569C172.439 122.191 172.571 122.755 172.882 122.829C173.193 122.903 173.565 122.458 173.712 121.836Z" fill="#FDA57D"/>
<path opacity="0.05" d="M169.652 148.342L169.912 148.66L175.697 145.852L175.443 145.502L169.652 148.342Z" fill="black"/>
<path opacity="0.05" d="M181.467 139.079L180.522 145.412L180.873 145.613L181.616 139.148L181.467 139.079Z" fill="black"/>
<path d="M151.026 122.856H146.408V154.086H151.026V122.856Z" fill="#E0E0E0"/>
<path d="M142.301 36.8983L137.923 35.4276L127.979 65.0307L132.356 66.5014L142.301 36.8983Z" fill="#E0E0E0"/>
<path d="M149.487 126.328H147.948V50.9177L149.466 50.9973L149.487 126.328Z" fill="#E0E0E0"/>
<path d="M166.801 144.833L180.268 161.411L201.043 152.918C201.043 152.918 204.121 151.76 202.582 149.064C201.043 146.367 197.582 149.451 197.582 149.451L182.189 154.85L172.826 141.871L166.801 144.833Z" fill="#FDA57D"/>
<path d="M161.223 131.148C161.223 131.148 166.992 148.883 167.762 149.266L176.786 144.833C176.786 144.833 174.222 132.873 171.366 131.031C168.51 129.189 161.61 129.603 161.223 131.148Z" fill="#6C63FF"/>
<path opacity="0.05" d="M162.868 136.122C162.868 136.122 162.566 142.906 164.492 144.085L162.868 136.122Z" fill="black"/>
<path d="M147.958 50.9973L141.015 40.7363L141.743 38.5652L149.466 50.9973H147.958Z" fill="#E0E0E0"/>
<path d="M183.243 125.282L182.24 124.615L180.557 127.149L181.56 127.816L183.243 125.282Z" fill="black"/>
<path d="M181.837 125.163L174.398 120.217L174.063 120.721L181.502 125.667L181.837 125.163Z" fill="black"/>
<g opacity="0.7">
<path opacity="0.7" d="M320.736 325.88H301.458V340.127H320.736V325.88Z" fill="url(#paint5_linear)"/>
<g opacity="0.1">
<path opacity="0.1" d="M301.458 329.654C301.458 329.654 308.65 330.493 311.097 330.493C313.544 330.493 320.736 329.654 320.736 329.654V326.092H301.458V329.654Z" fill="url(#paint6_linear)"/>
</g>
<path opacity="0.7" d="M320.736 329.442C320.736 329.442 313.544 330.28 311.097 330.28C308.65 330.28 301.458 329.442 301.458 329.442V315.401C301.458 312.844 302.473 310.392 304.281 308.585C306.089 306.777 308.541 305.761 311.097 305.761C313.654 305.761 316.105 306.777 317.913 308.585C319.721 310.392 320.736 312.844 320.736 315.401V329.442Z" fill="url(#paint7_linear)"/>
<path opacity="0.7" d="M311.097 308.49C310.486 308.49 309.9 308.247 309.468 307.815C309.036 307.383 308.793 306.797 308.793 306.186V300.946H313.401V306.186C313.401 306.797 313.158 307.383 312.726 307.815C312.294 308.247 311.708 308.49 311.097 308.49Z" fill="url(#paint8_linear)"/>
<path opacity="0.7" d="M308.374 335.1H301.458V382.042H308.374V335.1Z" fill="url(#paint9_linear)"/>
<path opacity="0.7" d="M320.736 335.1H313.82V382.042H320.736V335.1Z" fill="url(#paint10_linear)"/>
<g opacity="0.1">
<path opacity="0.1" d="M308.793 304.445C310.307 304.817 311.887 304.817 313.401 304.445V301.153H308.793V304.445Z" fill="url(#paint11_linear)"/>
</g>
<path opacity="0.7" d="M311.097 302.618C316.652 302.618 321.156 298.115 321.156 292.559C321.156 287.004 316.652 282.5 311.097 282.5C305.542 282.5 301.039 287.004 301.039 292.559C301.039 298.115 305.542 302.618 311.097 302.618Z" fill="url(#paint12_linear)"/>
<path opacity="0.7" d="M311.097 304.508C316.421 304.508 320.736 300.192 320.736 294.868C320.736 289.544 316.421 285.228 311.097 285.228C305.773 285.228 301.458 289.544 301.458 294.868C301.458 300.192 305.773 304.508 311.097 304.508Z" fill="url(#paint13_linear)"/>
<g opacity="0.1">
<path opacity="0.1" d="M305.258 290.032C305.784 290.323 306.364 290.504 306.962 290.563C309.431 290.9 311.944 290.617 314.277 289.74C314.495 290.214 314.815 290.633 315.213 290.97C315.611 291.306 316.077 291.552 316.58 291.689C317.587 291.955 318.628 292.071 319.669 292.034C319.898 292.059 320.129 292.014 320.333 291.906C320.795 291.593 320.572 290.876 320.301 290.388L318.958 287.951C318.601 287.21 318.12 286.535 317.536 285.956C316.723 285.315 315.757 284.899 314.733 284.751C312.349 284.276 309.888 284.358 307.541 284.989C305.041 285.653 301.819 287.951 305.258 290.032Z" fill="url(#paint14_linear)"/>
</g>
<path opacity="0.7" d="M305.258 289.825C305.784 290.116 306.364 290.297 306.962 290.356C309.431 290.693 311.944 290.41 314.277 289.533C314.495 290.007 314.815 290.426 315.213 290.763C315.611 291.099 316.077 291.345 316.58 291.482C317.587 291.748 318.628 291.864 319.669 291.827C319.898 291.852 320.129 291.807 320.333 291.699C320.795 291.386 320.572 290.669 320.301 290.181L318.958 287.744C318.601 287.003 318.12 286.328 317.536 285.749C316.723 285.108 315.757 284.692 314.733 284.544C312.349 284.069 309.888 284.151 307.541 284.782C305.041 285.446 301.819 287.739 305.258 289.825Z" fill="url(#paint15_linear)"/>
<path opacity="0.7" d="M320.63 296.44C321.093 296.44 321.469 295.736 321.469 294.868C321.469 294 321.093 293.297 320.63 293.297C320.167 293.297 319.791 294 319.791 294.868C319.791 295.736 320.167 296.44 320.63 296.44Z" fill="url(#paint16_linear)"/>
<path opacity="0.7" d="M301.564 296.44C302.027 296.44 302.403 295.736 302.403 294.868C302.403 294 302.027 293.297 301.564 293.297C301.101 293.297 300.725 294 300.725 294.868C300.725 295.736 301.101 296.44 301.564 296.44Z" fill="url(#paint17_linear)"/>
<path opacity="0.7" d="M336.872 284.809C338.145 284.809 339.176 283.777 339.176 282.505C339.176 281.233 338.145 280.201 336.872 280.201C335.6 280.201 334.569 281.233 334.569 282.505C334.569 283.777 335.6 284.809 336.872 284.809Z" fill="url(#paint18_linear)"/>
<path opacity="0.7" d="M313.886 319.547C313.886 320.281 313.807 320.916 313.649 321.453C313.491 321.99 313.276 322.434 313.003 322.785C312.731 323.136 312.411 323.399 312.044 323.572C311.681 323.742 311.293 323.827 310.878 323.827C310.464 323.827 310.075 323.742 309.712 323.572C309.349 323.399 309.031 323.136 308.759 322.785C308.487 322.434 308.271 321.99 308.114 321.453C307.96 320.916 307.883 320.281 307.883 319.547C307.883 318.813 307.96 318.177 308.114 317.641C308.271 317.104 308.487 316.66 308.759 316.309C309.031 315.957 309.349 315.697 309.712 315.527C310.075 315.354 310.464 315.267 310.878 315.267C311.293 315.267 311.681 315.354 312.044 315.527C312.411 315.697 312.731 315.957 313.003 316.309C313.276 316.66 313.491 317.104 313.649 317.641C313.807 318.177 313.886 318.813 313.886 319.547ZM313.294 319.547C313.294 318.868 313.228 318.288 313.098 317.806C312.968 317.325 312.792 316.932 312.571 316.628C312.354 316.32 312.098 316.095 311.802 315.953C311.51 315.811 311.202 315.74 310.878 315.74C310.555 315.74 310.247 315.811 309.955 315.953C309.663 316.095 309.406 316.32 309.185 316.628C308.964 316.932 308.788 317.325 308.658 317.806C308.528 318.288 308.463 318.868 308.463 319.547C308.463 320.23 308.528 320.812 308.658 321.293C308.788 321.771 308.964 322.164 309.185 322.471C309.406 322.775 309.663 322.998 309.955 323.14C310.247 323.278 310.555 323.348 310.878 323.348C311.202 323.348 311.51 323.278 311.802 323.14C312.098 322.998 312.354 322.775 312.571 322.471C312.792 322.164 312.968 321.771 313.098 321.293C313.228 320.812 313.294 320.23 313.294 319.547ZM313.886 333.547C313.886 334.281 313.807 334.916 313.649 335.453C313.491 335.99 313.276 336.434 313.003 336.785C312.731 337.136 312.411 337.399 312.044 337.572C311.681 337.742 311.293 337.827 310.878 337.827C310.464 337.827 310.075 337.742 309.712 337.572C309.349 337.399 309.031 337.136 308.759 336.785C308.487 336.434 308.271 335.99 308.114 335.453C307.96 334.916 307.883 334.281 307.883 333.547C307.883 332.813 307.96 332.177 308.114 331.641C308.271 331.104 308.487 330.66 308.759 330.309C309.031 329.957 309.349 329.697 309.712 329.527C310.075 329.354 310.464 329.267 310.878 329.267C311.293 329.267 311.681 329.354 312.044 329.527C312.411 329.697 312.731 329.957 313.003 330.309C313.276 330.66 313.491 331.104 313.649 331.641C313.807 332.177 313.886 332.813 313.886 333.547ZM313.294 333.547C313.294 332.868 313.228 332.288 313.098 331.806C312.968 331.325 312.792 330.932 312.571 330.628C312.354 330.32 312.098 330.095 311.802 329.953C311.51 329.811 311.202 329.74 310.878 329.74C310.555 329.74 310.247 329.811 309.955 329.953C309.663 330.095 309.406 330.32 309.185 330.628C308.964 330.932 308.788 331.325 308.658 331.806C308.528 332.288 308.463 332.868 308.463 333.547C308.463 334.23 308.528 334.812 308.658 335.293C308.788 335.771 308.964 336.164 309.185 336.471C309.406 336.775 309.663 336.998 309.955 337.14C310.247 337.278 310.555 337.348 310.878 337.348C311.202 337.348 311.51 337.278 311.802 337.14C312.098 336.998 312.354 336.775 312.571 336.471C312.792 336.164 312.968 335.771 313.098 335.293C313.228 334.812 313.294 334.23 313.294 333.547Z" fill="black"/>
<path opacity="0.7" d="M311.309 298.637C311.309 298.637 305.863 300.522 301.67 296.333C301.67 296.333 302.01 297.724 302.594 299.396C303.538 301.187 305.022 302.635 306.836 303.534C308.649 304.434 310.7 304.74 312.697 304.409C314.694 304.077 316.536 303.126 317.962 301.689C319.388 300.252 320.325 298.402 320.641 296.402C319.632 296.944 312.472 300.389 311.309 298.637ZM311.102 301.153C310.041 301.153 309.218 300.357 309.218 299.895C309.218 299.433 310.062 299.476 311.102 299.476C312.143 299.476 312.987 299.433 312.987 299.895C312.987 300.357 312.137 301.153 311.097 301.153H311.102Z" fill="url(#paint19_linear)"/>
<path opacity="0.7" d="M316.219 307.242C316.219 307.242 327.44 300.946 334.356 282.505L337.711 284.602C337.711 284.602 332.159 308.102 318.226 313.522L316.219 307.242Z" fill="url(#paint20_linear)"/>
<path opacity="0.7" d="M285.327 284.809C286.599 284.809 287.631 283.777 287.631 282.505C287.631 281.233 286.599 280.201 285.327 280.201C284.055 280.201 283.023 281.233 283.023 282.505C283.023 283.777 284.055 284.809 285.327 284.809Z" fill="url(#paint21_linear)"/>
<path opacity="0.7" d="M305.975 307.242C305.975 307.242 294.754 300.946 287.838 282.505L284.504 284.597C284.504 284.597 290.056 308.097 303.99 313.517L305.975 307.242Z" fill="url(#paint22_linear)"/>
<path opacity="0.7" d="M307.955 383.719H301.877V383.406C301.877 382.601 302.197 381.829 302.766 381.259C303.336 380.69 304.108 380.37 304.913 380.37C305.719 380.37 306.491 380.69 307.06 381.259C307.63 381.829 307.949 382.601 307.949 383.406L307.955 383.719Z" fill="url(#paint23_linear)"/>
<path opacity="0.7" d="M320.317 383.719H314.229V383.406C314.229 382.601 314.549 381.829 315.118 381.259C315.687 380.69 316.46 380.37 317.265 380.37C318.07 380.37 318.842 380.69 319.412 381.259C319.981 381.829 320.301 382.601 320.301 383.406L320.317 383.719Z" fill="url(#paint24_linear)"/>
</g>
<path d="M320.46 326.055H301.739V339.894H320.46V326.055Z" fill="#4D8AF0"/>
<path opacity="0.1" d="M301.739 329.718C301.739 329.718 308.724 330.53 311.097 330.53C313.47 330.53 320.455 329.718 320.455 329.718V326.262H301.739V329.718Z" fill="black"/>
<path d="M320.455 329.516C320.455 329.516 313.47 330.328 311.097 330.328C308.724 330.328 301.739 329.516 301.739 329.516V315.884C301.739 313.402 302.725 311.022 304.48 309.266C306.235 307.511 308.615 306.525 311.097 306.525C313.579 306.525 315.959 307.511 317.714 309.266C319.469 311.022 320.455 313.402 320.455 315.884V329.516Z" fill="#6C63FF"/>
<path d="M308.857 301.843H313.332V306.929C313.332 307.523 313.096 308.093 312.676 308.513C312.256 308.933 311.686 309.169 311.092 309.169C310.498 309.169 309.928 308.933 309.508 308.513C309.088 308.093 308.852 307.523 308.852 306.929V301.843H308.857Z" fill="#FDB797"/>
<path d="M308.454 335.01H301.739V380.588H308.454V335.01Z" fill="#4D8AF0"/>
<path d="M320.455 335.01H313.74V380.588H320.455V335.01Z" fill="#4D8AF0"/>
<path opacity="0.1" d="M308.862 305.235C310.332 305.597 311.867 305.597 313.337 305.235V302.05H308.862V305.235Z" fill="black"/>
<path d="M311.097 303.473C316.491 303.473 320.864 299.1 320.864 293.706C320.864 288.311 316.491 283.938 311.097 283.938C305.703 283.938 301.331 288.311 301.331 293.706C301.331 299.1 305.703 303.473 311.097 303.473Z" fill="#814E4D"/>
<path d="M311.097 305.299C316.265 305.299 320.455 301.109 320.455 295.941C320.455 290.772 316.265 286.582 311.097 286.582C305.929 286.582 301.739 290.772 301.739 295.941C301.739 301.109 305.929 305.299 311.097 305.299Z" fill="#FDB797"/>
<path opacity="0.1" d="M305.428 291.248C305.941 291.525 306.504 291.695 307.084 291.747C309.481 292.075 311.922 291.801 314.186 290.951C314.399 291.411 314.709 291.819 315.096 292.147C315.483 292.474 315.937 292.713 316.426 292.846C317.404 293.104 318.415 293.217 319.425 293.18C319.648 293.206 319.874 293.163 320.073 293.058C320.524 292.756 320.306 292.06 320.041 291.582L318.735 289.22C318.389 288.5 317.922 287.845 317.355 287.283C316.566 286.661 315.627 286.258 314.632 286.115C312.317 285.654 309.926 285.734 307.647 286.348C305.205 286.996 302.084 289.225 305.428 291.248Z" fill="black"/>
<path d="M305.428 291.046C305.941 291.323 306.504 291.493 307.084 291.545C309.481 291.873 311.922 291.599 314.186 290.749C314.399 291.209 314.709 291.617 315.096 291.945C315.483 292.272 315.937 292.511 316.426 292.644C317.404 292.903 318.415 293.015 319.425 292.979C319.648 293.004 319.874 292.962 320.073 292.856C320.524 292.554 320.306 291.858 320.041 291.381L318.735 289.018C318.389 288.299 317.922 287.643 317.355 287.081C316.566 286.459 315.627 286.057 314.632 285.913C312.317 285.453 309.926 285.533 307.647 286.147C305.205 286.794 302.084 289.024 305.428 291.046Z" fill="#814E4D"/>
<path d="M320.354 297.464C320.803 297.464 321.166 296.782 321.166 295.941C321.166 295.099 320.803 294.417 320.354 294.417C319.906 294.417 319.542 295.099 319.542 295.941C319.542 296.782 319.906 297.464 320.354 297.464Z" fill="#FDB797"/>
<path d="M301.84 297.464C302.289 297.464 302.652 296.782 302.652 295.941C302.652 295.099 302.289 294.417 301.84 294.417C301.392 294.417 301.028 295.099 301.028 295.941C301.028 296.782 301.392 297.464 301.84 297.464Z" fill="#FDB797"/>
<path d="M336.124 286.179C337.361 286.179 338.364 285.176 338.364 283.938C338.364 282.701 337.361 281.698 336.124 281.698C334.887 281.698 333.884 282.701 333.884 283.938C333.884 285.176 334.887 286.179 336.124 286.179Z" fill="#FDB797"/>
<path d="M311.304 299.603C311.304 299.603 305.996 301.435 301.946 297.363C301.946 297.363 302.275 298.712 302.843 300.341C303.761 302.078 305.202 303.482 306.962 304.354C308.722 305.226 310.712 305.522 312.65 305.2C314.587 304.879 316.375 303.955 317.758 302.561C319.142 301.167 320.052 299.372 320.359 297.432C319.388 297.963 312.435 301.302 311.304 299.603ZM311.102 302.045C310.089 302.045 309.271 301.275 309.271 300.824C309.271 300.373 310.089 300.415 311.102 300.415C312.116 300.415 312.934 300.373 312.934 300.824C312.934 301.275 312.106 302.045 311.097 302.045H311.102Z" fill="#814E4D"/>
<path d="M316.071 307.959C316.071 307.959 326.968 301.843 333.682 283.938L336.936 285.971C336.936 285.971 331.543 308.797 318.013 314.053L316.071 307.959Z" fill="#6C63FF"/>
<path d="M286.07 286.179C287.307 286.179 288.31 285.176 288.31 283.938C288.31 282.701 287.307 281.698 286.07 281.698C284.833 281.698 283.83 282.701 283.83 283.938C283.83 285.176 284.833 286.179 286.07 286.179Z" fill="#FDB797"/>
<path d="M306.124 307.959C306.124 307.959 295.226 301.843 288.512 283.938L285.258 285.971C285.258 285.971 290.651 308.797 304.181 314.053L306.124 307.959Z" fill="#6C63FF"/>
<path d="M305.094 378.963C305.877 378.963 306.627 379.274 307.181 379.828C307.734 380.381 308.045 381.132 308.045 381.915V382.201H302.148V381.899C302.152 381.12 302.464 380.374 303.016 379.824C303.568 379.274 304.315 378.965 305.094 378.963Z" fill="#333333"/>
<path d="M317.1 378.963C317.883 378.963 318.634 379.274 319.187 379.828C319.741 380.381 320.052 381.132 320.052 381.915V382.201H314.149V381.899C314.153 381.119 314.466 380.372 315.019 379.822C315.572 379.272 316.32 378.963 317.1 378.963Z" fill="#333333"/>
</g>
<defs>
<linearGradient id="paint0_linear" x1="70.6643" y1="72.4165" x2="70.6643" y2="59.7455" gradientUnits="userSpaceOnUse">
<stop stop-color="#808080" stop-opacity="0.25"/>
<stop offset="0.54" stop-color="#808080" stop-opacity="0.12"/>
<stop offset="1" stop-color="#808080" stop-opacity="0.1"/>
</linearGradient>
<linearGradient id="paint1_linear" x1="48622.7" y1="24231.9" x2="48622.7" y2="7947.44" gradientUnits="userSpaceOnUse">
<stop stop-color="#808080" stop-opacity="0.25"/>
<stop offset="0.54" stop-color="#808080" stop-opacity="0.12"/>
<stop offset="1" stop-color="#808080" stop-opacity="0.1"/>
</linearGradient>
<linearGradient id="paint2_linear" x1="4026.06" y1="2773.19" x2="4026.06" y2="2376.89" gradientUnits="userSpaceOnUse">
<stop stop-color="#808080" stop-opacity="0.25"/>
<stop offset="0.54" stop-color="#808080" stop-opacity="0.12"/>
<stop offset="1" stop-color="#808080" stop-opacity="0.1"/>
</linearGradient>
<linearGradient id="paint3_linear" x1="5035.79" y1="4309.94" x2="5035.79" y2="3456.6" gradientUnits="userSpaceOnUse">
<stop stop-color="#808080" stop-opacity="0.25"/>
<stop offset="0.54" stop-color="#808080" stop-opacity="0.12"/>
<stop offset="1" stop-color="#808080" stop-opacity="0.1"/>
</linearGradient>
<linearGradient id="paint4_linear" x1="73287.4" y1="23202.1" x2="73287.4" y2="16630.4" gradientUnits="userSpaceOnUse">
<stop stop-color="#808080" stop-opacity="0.25"/>
<stop offset="0.54" stop-color="#808080" stop-opacity="0.12"/>
<stop offset="1" stop-color="#808080" stop-opacity="0.1"/>
</linearGradient>
<linearGradient id="paint5_linear" x1="11250.4" y1="9263.68" x2="11950.6" y2="9263.68" gradientUnits="userSpaceOnUse">
<stop stop-color="#808080" stop-opacity="0.25"/>
<stop offset="0.54" stop-color="#808080" stop-opacity="0.12"/>
<stop offset="1" stop-color="#808080" stop-opacity="0.1"/>
</linearGradient>
<linearGradient id="paint6_linear" x1="16243.5" y1="3423.79" x2="16943.7" y2="3423.79" gradientUnits="userSpaceOnUse">
<stop stop-color="#808080" stop-opacity="0.25"/>
<stop offset="0.54" stop-color="#808080" stop-opacity="0.12"/>
<stop offset="1" stop-color="#808080" stop-opacity="0.1"/>
</linearGradient>
<linearGradient id="paint7_linear" x1="16243.5" y1="17091.2" x2="16943.7" y2="17091.2" gradientUnits="userSpaceOnUse">
<stop stop-color="#808080" stop-opacity="0.25"/>
<stop offset="0.54" stop-color="#808080" stop-opacity="0.12"/>
<stop offset="1" stop-color="#808080" stop-opacity="0.1"/>
</linearGradient>
<linearGradient id="paint8_linear" x1="4182.4" y1="5275.77" x2="4222.39" y2="5275.77" gradientUnits="userSpaceOnUse">
<stop stop-color="#808080" stop-opacity="0.25"/>
<stop offset="0.54" stop-color="#808080" stop-opacity="0.12"/>
<stop offset="1" stop-color="#808080" stop-opacity="0.1"/>
</linearGradient>
<linearGradient id="paint9_linear" x1="4229.46" y1="32043.3" x2="4319.58" y2="32043.3" gradientUnits="userSpaceOnUse">
<stop stop-color="#808080" stop-opacity="0.25"/>
<stop offset="0.54" stop-color="#808080" stop-opacity="0.12"/>
<stop offset="1" stop-color="#808080" stop-opacity="0.1"/>
</linearGradient>
<linearGradient id="paint10_linear" x1="4402.9" y1="32043.3" x2="4493.02" y2="32043.3" gradientUnits="userSpaceOnUse">
<stop stop-color="#808080" stop-opacity="0.25"/>
<stop offset="0.54" stop-color="#808080" stop-opacity="0.12"/>
<stop offset="1" stop-color="#808080" stop-opacity="0.1"/>
</linearGradient>
<linearGradient id="paint11_linear" x1="4182.4" y1="2643.89" x2="4222.39" y2="2643.89" gradientUnits="userSpaceOnUse">
<stop stop-color="#808080" stop-opacity="0.25"/>
<stop offset="0.54" stop-color="#808080" stop-opacity="0.12"/>
<stop offset="1" stop-color="#808080" stop-opacity="0.1"/>
</linearGradient>
<linearGradient id="paint12_linear" x1="11710.4" y1="11370.5" x2="12472.8" y2="11370.5" gradientUnits="userSpaceOnUse">
<stop stop-color="#808080" stop-opacity="0.25"/>
<stop offset="0.54" stop-color="#808080" stop-opacity="0.12"/>
<stop offset="1" stop-color="#808080" stop-opacity="0.1"/>
</linearGradient>
<linearGradient id="paint13_linear" x1="11250.4" y1="10994.8" x2="11950.6" y2="10994.8" gradientUnits="userSpaceOnUse">
<stop stop-color="#808080" stop-opacity="0.25"/>
<stop offset="0.54" stop-color="#808080" stop-opacity="0.12"/>
<stop offset="1" stop-color="#808080" stop-opacity="0.1"/>
</linearGradient>
<linearGradient id="paint14_linear" x1="14302.1" y1="5056.99" x2="14836.4" y2="5056.99" gradientUnits="userSpaceOnUse">
<stop stop-color="#808080" stop-opacity="0.25"/>
<stop offset="0.54" stop-color="#808080" stop-opacity="0.12"/>
<stop offset="1" stop-color="#808080" stop-opacity="0.1"/>
</linearGradient>
<linearGradient id="paint15_linear" x1="14302.1" y1="5053.74" x2="14836.4" y2="5053.74" gradientUnits="userSpaceOnUse">
<stop stop-color="#808080" stop-opacity="0.25"/>
<stop offset="0.54" stop-color="#808080" stop-opacity="0.12"/>
<stop offset="1" stop-color="#808080" stop-opacity="0.1"/>
</linearGradient>
<linearGradient id="paint16_linear" x1="1330.34" y1="2038.92" x2="1335.64" y2="2038.92" gradientUnits="userSpaceOnUse">
<stop stop-color="#808080" stop-opacity="0.25"/>
<stop offset="0.54" stop-color="#808080" stop-opacity="0.12"/>
<stop offset="1" stop-color="#808080" stop-opacity="0.1"/>
</linearGradient>
<linearGradient id="paint17_linear" x1="1251" y1="2038.92" x2="1256.3" y2="2038.92" gradientUnits="userSpaceOnUse">
<stop stop-color="#808080" stop-opacity="0.25"/>
<stop offset="0.54" stop-color="#808080" stop-opacity="0.12"/>
<stop offset="1" stop-color="#808080" stop-opacity="0.1"/>
</linearGradient>
<linearGradient id="paint18_linear" x1="3238.58" y1="2732.37" x2="3278.61" y2="2732.37" gradientUnits="userSpaceOnUse">
<stop stop-color="#808080" stop-opacity="0.25"/>
<stop offset="0.54" stop-color="#808080" stop-opacity="0.12"/>
<stop offset="1" stop-color="#808080" stop-opacity="0.1"/>
</linearGradient>
<linearGradient id="paint19_linear" x1="15996.7" y1="5641.4" x2="16673.8" y2="5641.4" gradientUnits="userSpaceOnUse">
<stop stop-color="#808080" stop-opacity="0.25"/>
<stop offset="0.54" stop-color="#808080" stop-opacity="0.12"/>
<stop offset="1" stop-color="#808080" stop-opacity="0.1"/>
</linearGradient>
<linearGradient id="paint20_linear" x1="18686.3" y1="20346.6" x2="19556.5" y2="20346.6" gradientUnits="userSpaceOnUse">
<stop stop-color="#808080" stop-opacity="0.25"/>
<stop offset="0.54" stop-color="#808080" stop-opacity="0.12"/>
<stop offset="1" stop-color="#808080" stop-opacity="0.1"/>
</linearGradient>
<linearGradient id="paint21_linear" x1="2739.62" y1="2732.37" x2="2779.66" y2="2732.37" gradientUnits="userSpaceOnUse">
<stop stop-color="#808080" stop-opacity="0.25"/>
<stop offset="0.54" stop-color="#808080" stop-opacity="0.12"/>
<stop offset="1" stop-color="#808080" stop-opacity="0.1"/>
</linearGradient>
<linearGradient id="paint22_linear" x1="17352.9" y1="20343.2" x2="18222.1" y2="20343.2" gradientUnits="userSpaceOnUse">
<stop stop-color="#808080" stop-opacity="0.25"/>
<stop offset="0.54" stop-color="#808080" stop-opacity="0.12"/>
<stop offset="1" stop-color="#808080" stop-opacity="0.1"/>
</linearGradient>
<linearGradient id="paint23_linear" x1="5332.47" y1="3077.38" x2="5402.06" y2="3077.38" gradientUnits="userSpaceOnUse">
<stop stop-color="#808080" stop-opacity="0.25"/>
<stop offset="0.54" stop-color="#808080" stop-opacity="0.12"/>
<stop offset="1" stop-color="#808080" stop-opacity="0.1"/>
</linearGradient>
<linearGradient id="paint24_linear" x1="5495.35" y1="3077.38" x2="5565.06" y2="3077.38" gradientUnits="userSpaceOnUse">
<stop stop-color="#808080" stop-opacity="0.25"/>
<stop offset="0.54" stop-color="#808080" stop-opacity="0.12"/>
<stop offset="1" stop-color="#808080" stop-opacity="0.1"/>
</linearGradient>
<clipPath id="clip0">
<rect width="362" height="387" fill="white"/>
</clipPath>
</defs>
</svg>
